<svg xmlns="http://www.w3.org/2000/svg" width="29.171" height="52.892" viewBox="0 0 29.171 52.892">
  <g id="Group_6285" data-name="Group 6285" transform="translate(0 -121.599)">
    <g id="Group_6284" data-name="Group 6284">
      <g id="Group_6283" data-name="Group 6283" transform="translate(0 1)">
        <g id="Group_6282" data-name="Group 6282" transform="translate(-1.598 119)">
          <path id="Path_2444" data-name="Path 2444" d="M6.394,0H29.171V52.892H6.394A6.332,6.332,0,0,1,0,46.624V6.269A6.332,6.332,0,0,1,6.394,0Z" transform="translate(1.598 1.599)" fill="#039"/>
        </g>
      </g>
      <path id="Path_2445" data-name="Path 2445" d="M3.031-10h-1.2v-6.659h1.2Zm2.537-1.278V-10h-1.2v-1.278ZM12.09-10H10.821L9.787-12.741H8.1V-10H6.9v-6.659H9.787a2.48,2.48,0,0,1,1.771.544,1.865,1.865,0,0,1,.566,1.407,1.761,1.761,0,0,1-1.2,1.766ZM8.1-13.7H9.592a1.451,1.451,0,0,0,.966-.273.939.939,0,0,0,.317-.751.894.894,0,0,0-.312-.71,1.29,1.29,0,0,0-.873-.271H8.1Zm6.293,2.42V-10h-1.2v-1.278ZM3.031.386h-1.2V-6.273h1.2Zm6.654,0H8.416L7.382-2.351H5.694V.386h-1.2V-6.273H7.382a2.48,2.48,0,0,1,1.771.544,1.865,1.865,0,0,1,.566,1.407,1.761,1.761,0,0,1-1.2,1.766Zm-3.99-3.7H7.187a1.451,1.451,0,0,0,.966-.273.939.939,0,0,0,.317-.751.894.894,0,0,0-.312-.71,1.29,1.29,0,0,0-.873-.271H5.694ZM16.138.386H14.855L14.324-1.2H11.763L11.241.386H10.216l2.21-6.659H13.9ZM14-2.161l-.971-2.971L12.06-2.161ZM21.968.386H20.8L18.275-3.868l-.19-.317q-.059-.1-.18-.307V.386h-.966V-6.273h1.327L20.6-2.351l.424.717V-6.273h.946Z" transform="translate(2.83 168.709)" fill="#fff"/>
      <g id="Group_6111" data-name="Group 6111" transform="translate(4.586 126.144)">
        <g id="Group_6107" data-name="Group 6107">
          <rect id="Rectangle_1524" data-name="Rectangle 1524" width="20" height="4" fill="#229f44"/>
          <rect id="Rectangle_1525" data-name="Rectangle 1525" width="20" height="4" transform="translate(0 4)" fill="#fff"/>
          <rect id="Rectangle_1526" data-name="Rectangle 1526" width="20" height="5" transform="translate(0 8)" fill="#ee0031"/>
        </g>
        <g id="Group_6108" data-name="Group 6108" transform="translate(8.386 4.645)">
          <path id="Path_2435" data-name="Path 2435" d="M968.764-65.046a.027.027,0,0,0,.011-.015,1.42,1.42,0,0,1,.334-.335,1.508,1.508,0,0,1,.4-.2c.009,0,.017-.008.027,0h0l-.068.064a1.959,1.959,0,0,0-.377.469c0,.007-.011.013-.009.023h0s-.005,0-.007.005a.148.148,0,0,0-.023.047v0l-.005.008a.866.866,0,0,0-.063.141l-.007.016-.006.014a1.632,1.632,0,0,0-.1.7,1.208,1.208,0,0,0,.039.243l0,.015.012.046,0,.015a1.007,1.007,0,0,0,.046.139l.006.015a.163.163,0,0,0,.018.045.044.044,0,0,0,.009.021,1.039,1.039,0,0,0,.073.148.028.028,0,0,0,.01.016.166.166,0,0,0,.026.045.028.028,0,0,0,.01.016c.024.046.057.086.085.13l0,0-.024-.014a1.913,1.913,0,0,1-.158-.12.044.044,0,0,0-.018-.015l-.048-.046-.015-.015a.388.388,0,0,0-.047-.05.043.043,0,0,0-.015-.017l-.047-.059-.019-.022-.1-.148-.012-.019-.027-.055-.013-.026-.008-.021a1.229,1.229,0,0,1-.106-.511c0-.045,0-.09.006-.135l0-.026a1.272,1.272,0,0,1,.2-.523A.02.02,0,0,0,968.764-65.046Z" transform="translate(-968.553 66.025)" fill="#ee0031"/>
          <path id="Path_2436" data-name="Path 2436" d="M1437.142-65.191l.013.016a1.727,1.727,0,0,1,.12.206,1.294,1.294,0,0,1,.114.424.039.039,0,0,0,0,.026c0,.008,0,.017,0,.025a1.267,1.267,0,0,1-.061.438,1.683,1.683,0,0,1-.1.226.027.027,0,0,0-.009.017.206.206,0,0,0-.027.045.046.046,0,0,0-.015.026h0s0,0,0,.005h0a.008.008,0,0,0-.006.01h0a.105.105,0,0,0-.026.035l-.05.066a.04.04,0,0,0-.016.019,1.527,1.527,0,0,1-.236.224.827.827,0,0,1-.109.075l0,0c.025-.044.059-.081.082-.127a.028.028,0,0,0,.01-.016.107.107,0,0,0,.02-.034l.01-.016a1.081,1.081,0,0,0,.088-.182.037.037,0,0,0,.01-.021.172.172,0,0,0,.02-.055c.005,0,.005-.009.007-.015l.007-.016a1.635,1.635,0,0,0,.064-.823,1.5,1.5,0,0,0-.1-.345.29.29,0,0,0-.023-.056s0-.009-.008-.01h0a.051.051,0,0,0-.01-.026,1.942,1.942,0,0,0-.465-.606l-.043-.037a1.444,1.444,0,0,1,.41.193A1.421,1.421,0,0,1,1437.142-65.191Z" transform="translate(-1434.016 66.12)" fill="#ee0031"/>
          <path id="Path_2437" data-name="Path 2437" d="M1213.626-148.234a.035.035,0,0,0,.015.014.187.187,0,0,0,.273-.041.305.305,0,0,0,.051-.108c.008,0,.007.011.009.016a.285.285,0,0,0,.061.11.183.183,0,0,0,.224.044.028.028,0,0,0,.016-.009.25.25,0,0,0,.111-.163c0-.008,0-.017.008-.025a.376.376,0,0,1-.029.274l-.01.015a.228.228,0,0,1-.1.067.222.222,0,0,1-.244-.088c-.014-.019-.027-.039-.041-.06a.458.458,0,0,1-.049.072.22.22,0,0,1-.213.081.211.211,0,0,1-.149-.109.018.018,0,0,0-.006-.014.435.435,0,0,1-.008-.244A.281.281,0,0,0,1213.626-148.234Z" transform="translate(-1212.28 148.402)" fill="#ee0031"/>
          <path id="Path_2438" data-name="Path 2438" d="M1086.422-71.944a.017.017,0,0,0,0,.016.184.184,0,0,0,0,.02,1.488,1.488,0,0,1-.067.825c-.023.062-.053.121-.079.181a.025.025,0,0,0-.009.016.187.187,0,0,0-.023.042l-.009.015c-.039.061-.081.121-.126.179a.024.024,0,0,0-.011.015.112.112,0,0,0-.025.027.05.05,0,0,0-.016.019l-.011.011a1.433,1.433,0,0,1-.357.281s-.008,0-.009.009a1.4,1.4,0,0,0,.293.042,1.744,1.744,0,0,0,.3-.014.17.17,0,0,1-.029.015,2.039,2.039,0,0,1-.237.076.018.018,0,0,0-.016.005l-.02,0a1.406,1.406,0,0,1-.466.022c-.017,0-.02,0-.021.018s0,.032-.009.046c-.037.043-.074.087-.109.131-.009.012-.014.01-.022,0-.031-.038-.062-.076-.095-.113a.077.077,0,0,1-.025-.064c0-.015,0-.019-.02-.017a1.4,1.4,0,0,1-.353,0c-.06-.008-.118-.022-.177-.033l-.021-.007c-.036-.011-.073-.021-.109-.034a.589.589,0,0,1-.105-.043,1.7,1.7,0,0,0,.3.014,1.377,1.377,0,0,0,.3-.043l-.08-.048a1.518,1.518,0,0,1-.286-.236.032.032,0,0,0-.013-.014l-.035-.04-.013-.016c-.051-.065-.1-.133-.141-.2a.043.043,0,0,0-.014-.023l-.037-.074-.013-.027-.019-.044a1.512,1.512,0,0,1-.122-.653c0-.07.012-.138.021-.207a.041.041,0,0,0,.005-.021,1.54,1.54,0,0,1,.514-.861,1.582,1.582,0,0,0-.278,1.1.062.062,0,0,0,0,.031,1.334,1.334,0,0,0,.057.263,1.325,1.325,0,0,0,.11.267l.007.016,0,0h0a.752.752,0,0,0,.071.122.024.024,0,0,0,.01.015,1.063,1.063,0,0,0,.113.153.069.069,0,0,0,.02.021.3.3,0,0,0,.051.056l.02.02.031.03a.068.068,0,0,0,.021.02l.046.041.02.016a.862.862,0,0,0,.105.08l0-.1v-.021a.164.164,0,0,0,0-.051v-.016c0-.106,0-.213-.01-.319,0-.007,0-.014,0-.021s0-.033,0-.05,0-.011,0-.017a.094.094,0,0,0,0-.01q-.007-.192-.014-.384c-.006-.164-.011-.328-.017-.491q-.014-.383-.028-.766a.023.023,0,0,1,.015-.026l.192-.1a.029.029,0,0,1,.03,0l.19.1a.025.025,0,0,1,.016.028c0,.132-.009.263-.013.395q-.017.482-.034.965c0,.126-.009.253-.014.379s-.007.231-.011.346v.017c0,.015,0,.03,0,.044s0,.01,0,.016a.5.5,0,0,0,0,.081.927.927,0,0,0,.105-.08.043.043,0,0,0,.019-.015.245.245,0,0,0,.051-.045.029.029,0,0,0,.017-.015l.019-.016a1.623,1.623,0,0,0,.375-.567,1.542,1.542,0,0,0,.108-.453.044.044,0,0,0,0-.027,1.381,1.381,0,0,0-.005-.315,1.567,1.567,0,0,0-.269-.709s-.009-.008-.006-.014h.006l.015.013a1.627,1.627,0,0,1,.373.5A1.641,1.641,0,0,1,1086.422-71.944Z" transform="translate(-1083.673 73.254)" fill="#ee0031"/>
        </g>
      </g>
    </g>
  </g>
</svg>
